<svg width="20" height="21" viewBox="0 0 20 21" fill="none" xmlns="http://www.w3.org/2000/svg">
<g clip-path="url(#clip0_538_3647)">
<path d="M10 0.891602C4.4744 0.891602 -0.0218506 5.3866 -0.0218506 10.9129C-0.0218506 16.4391 4.4744 20.9341 10 20.9341C15.5256 20.9341 20.0219 16.4391 20.0219 10.9129C20.0219 5.3866 15.5256 0.891602 10 0.891602ZM10 20.2666C4.84252 20.2666 0.646899 16.0704 0.646899 10.9129C0.646899 5.75535 4.84252 1.5591 10 1.5591C15.1575 1.5591 19.3531 5.75535 19.3531 10.9129C19.3531 16.0704 15.1575 20.2666 10 20.2666Z" fill="#FCFCFC"/>
<path d="M12.1875 5.28762H10.52C8.39626 5.26637 8.12501 6.58075 8.12501 8.00325V9.03762H7.18751C7.14513 9.03196 7.10203 9.03615 7.06153 9.04985C7.02104 9.06355 6.98425 9.08641 6.95402 9.11663C6.92379 9.14686 6.90094 9.18365 6.88723 9.22415C6.87353 9.26464 6.86935 9.30775 6.87501 9.35012V11.2251C6.86935 11.2675 6.87353 11.3106 6.88723 11.3511C6.90094 11.3916 6.92379 11.4284 6.95402 11.4586C6.98425 11.4888 7.02104 11.5117 7.06153 11.5254C7.10203 11.5391 7.14513 11.5433 7.18751 11.5376H8.12501V16.2251C8.1198 16.2676 8.12436 16.3106 8.13835 16.3511C8.15234 16.3915 8.17537 16.4282 8.20571 16.4583C8.23604 16.4885 8.27286 16.5113 8.31336 16.525C8.35386 16.5388 8.39696 16.5431 8.43938 16.5376H10.3488C10.5331 16.5589 10.6825 16.4095 10.6238 16.2251L10.625 11.5376H12.1875C12.2299 11.5433 12.273 11.5391 12.3135 11.5254C12.354 11.5117 12.3908 11.4888 12.421 11.4586C12.4512 11.4284 12.4741 11.3916 12.4878 11.3511C12.5015 11.3106 12.5057 11.2675 12.5 11.2251V9.35012C12.5057 9.30775 12.5015 9.26464 12.4878 9.22415C12.4741 9.18365 12.4512 9.14686 12.421 9.11663C12.3908 9.08641 12.354 9.06355 12.3135 9.04985C12.273 9.03615 12.2299 9.03196 12.1875 9.03762H10.6231L10.625 8.10012C10.6856 7.70075 10.6856 7.76575 11.0563 7.78762H12.1744C12.2613 7.76825 12.3538 7.77887 12.4188 7.71575C12.4838 7.65262 12.5213 7.56637 12.4994 7.47512V5.60012C12.5052 5.55778 12.5011 5.51468 12.4874 5.47418C12.4738 5.43368 12.451 5.39688 12.4208 5.36663C12.3907 5.33639 12.3539 5.31352 12.3134 5.29982C12.2729 5.28611 12.2299 5.28194 12.1875 5.28762ZM11.8531 7.12762L11.0694 7.09762C10.0988 7.09762 10.0175 7.6245 10.0175 8.16387L10.015 9.34887C10.0149 9.39275 10.0235 9.43622 10.0402 9.47678C10.057 9.51735 10.0815 9.55422 10.1125 9.58527C10.1435 9.61633 10.1804 9.64097 10.2209 9.65778C10.2614 9.67459 10.3049 9.68325 10.3488 9.68325H11.875V10.8907H10.35C10.2614 10.8907 10.1765 10.9259 10.1138 10.9885C10.0511 11.051 10.0158 11.1359 10.0156 11.2245L10.015 15.9126H8.75001V11.2251C8.75001 11.0407 8.62438 10.8914 8.43938 10.8914H7.50001V9.68387H8.43938C8.48324 9.68394 8.52667 9.67536 8.56721 9.65863C8.60775 9.6419 8.64459 9.61735 8.67563 9.58637C8.73813 9.52325 8.74938 9.43825 8.74938 9.3495V8.00262C8.74938 6.60137 9.03251 5.93387 10.5194 5.93387H11.8525L11.8531 7.12762Z" fill="#FCFCFC"/>
</g>
<defs>
<clipPath id="clip0_538_3647">
<rect width="20" height="20" fill="white" transform="translate(0 0.913086)"/>
</clipPath>
</defs>
</svg>
