<svg width="20" height="21" viewBox="0 0 20 21" fill="none" xmlns="http://www.w3.org/2000/svg">
<g clip-path="url(#clip0_547_19056)">
<path d="M10 0.891846C4.4744 0.891846 -0.0218506 5.38685 -0.0218506 10.9131C-0.0218506 16.4393 4.4744 20.9343 10 20.9343C15.5256 20.9343 20.0219 16.4393 20.0219 10.9131C20.0219 5.38685 15.5256 0.891846 10 0.891846ZM10 20.2668C4.84252 20.2668 0.646899 16.0706 0.646899 10.9131C0.646899 5.7556 4.84252 1.55935 10 1.55935C15.1575 1.55935 19.3531 5.7556 19.3531 10.9131C19.3531 16.0706 15.1575 20.2668 10 20.2668Z" fill="#B70000"/>
<path d="M12.1875 5.28811H10.52C8.39626 5.26686 8.12501 6.58124 8.12501 8.00374V9.03811H7.18751C7.14513 9.03245 7.10203 9.03663 7.06153 9.05034C7.02104 9.06404 6.98425 9.08689 6.95402 9.11712C6.92379 9.14735 6.90094 9.18414 6.88723 9.22464C6.87353 9.26513 6.86935 9.30824 6.87501 9.35061V11.2256C6.86935 11.268 6.87353 11.3111 6.88723 11.3516C6.90094 11.3921 6.92379 11.4289 6.95402 11.4591C6.98425 11.4893 7.02104 11.5122 7.06153 11.5259C7.10203 11.5396 7.14513 11.5438 7.18751 11.5381H8.12501V16.2256C8.1198 16.2681 8.12436 16.3111 8.13835 16.3516C8.15234 16.392 8.17537 16.4287 8.20571 16.4588C8.23604 16.489 8.27286 16.5118 8.31336 16.5255C8.35386 16.5393 8.39696 16.5436 8.43938 16.5381H10.3488C10.5331 16.5594 10.6825 16.41 10.6238 16.2256L10.625 11.5381H12.1875C12.2299 11.5438 12.273 11.5396 12.3135 11.5259C12.354 11.5122 12.3908 11.4893 12.421 11.4591C12.4512 11.4289 12.4741 11.3921 12.4878 11.3516C12.5015 11.3111 12.5057 11.268 12.5 11.2256V9.35061C12.5057 9.30824 12.5015 9.26513 12.4878 9.22464C12.4741 9.18414 12.4512 9.14735 12.421 9.11712C12.3908 9.08689 12.354 9.06404 12.3135 9.05034C12.273 9.03663 12.2299 9.03245 12.1875 9.03811H10.6231L10.625 8.10061C10.6856 7.70124 10.6856 7.76624 11.0563 7.78811H12.1744C12.2613 7.76874 12.3538 7.77936 12.4188 7.71624C12.4838 7.65311 12.5213 7.56686 12.4994 7.47561V5.60061C12.5052 5.55827 12.5011 5.51517 12.4874 5.47467C12.4738 5.43417 12.451 5.39736 12.4208 5.36712C12.3907 5.33687 12.3539 5.31401 12.3134 5.3003C12.2729 5.2866 12.2299 5.28243 12.1875 5.28811ZM11.8531 7.12811L11.0694 7.09811C10.0988 7.09811 10.0175 7.62499 10.0175 8.16436L10.015 9.34936C10.0149 9.39324 10.0235 9.43671 10.0402 9.47727C10.057 9.51784 10.0815 9.5547 10.1125 9.58576C10.1435 9.61682 10.1804 9.64146 10.2209 9.65827C10.2614 9.67508 10.3049 9.68374 10.3488 9.68374H11.875V10.8912H10.35C10.2614 10.8912 10.1765 10.9264 10.1138 10.989C10.0511 11.0515 10.0158 11.1364 10.0156 11.225L10.015 15.9131H8.75001V11.2256C8.75001 11.0412 8.62438 10.8919 8.43938 10.8919H7.50001V9.68436H8.43938C8.48324 9.68443 8.52667 9.67585 8.56721 9.65912C8.60775 9.64239 8.64459 9.61784 8.67563 9.58686C8.73813 9.52374 8.74938 9.43874 8.74938 9.34999V8.00311C8.74938 6.60186 9.03251 5.93436 10.5194 5.93436H11.8525L11.8531 7.12811Z" fill="#B70000"/>
</g>
<defs>
<clipPath id="clip0_547_19056">
<rect width="20" height="20" fill="white" transform="translate(0 0.913086)"/>
</clipPath>
</defs>
</svg>
