<svg width="20" height="21" viewBox="0 0 20 21" fill="none" xmlns="http://www.w3.org/2000/svg">
<g clip-path="url(#clip0_524_3657)">
<path d="M11.6556 15.4431L11.669 15.453L11.6836 15.461C11.9321 15.5977 12.2105 15.6682 12.4634 15.5548C12.718 15.4407 12.8526 15.1826 12.9139 14.8864C12.9139 14.8862 12.914 14.8859 12.914 14.8857L14.4795 7.51256C14.5711 7.14092 14.5148 6.80348 14.295 6.59076C14.0728 6.37578 13.754 6.35648 13.4762 6.47995L4.28775 10.0273L4.28774 10.0272L4.28577 10.028C4.11191 10.0968 3.96608 10.1785 3.85727 10.2739C3.75011 10.3679 3.65913 10.4935 3.64343 10.6484C3.62679 10.8127 3.70024 10.9514 3.80456 11.0497C3.90449 11.144 4.03958 11.2102 4.18812 11.2558C4.18837 11.2558 4.18862 11.2559 4.18888 11.256L6.42152 11.9513L7.19555 14.4939L7.19533 14.494L7.19892 14.5042C7.21786 14.5579 7.23047 14.6036 7.24342 14.6504C7.24585 14.6591 7.24828 14.668 7.25077 14.6769L7.251 14.6777C7.26448 14.7259 7.28486 14.7988 7.32316 14.8638C7.36979 14.9429 7.43876 15.0056 7.53441 15.0423C7.61745 15.0741 7.70853 15.0816 7.79625 15.0816C7.95834 15.0816 8.08887 15.0434 8.2023 14.9757C8.29779 14.9188 8.37509 14.8432 8.43382 14.7858C8.43863 14.7811 8.44332 14.7765 8.44788 14.7721L8.44795 14.772L9.44004 13.8058L11.6556 15.4431ZM0.25 10.4585C0.25 5.32394 4.41086 1.16309 9.54545 1.16309C14.6801 1.16309 18.8409 5.32394 18.8409 10.4585C18.8409 15.5931 14.6801 19.754 9.54545 19.754C4.41086 19.754 0.25 15.5931 0.25 10.4585Z" stroke="#FCFCFC" stroke-width="0.5"/>
</g>
<defs>
<clipPath id="clip0_524_3657">
<rect width="20" height="20" fill="white" transform="translate(0 0.913086)"/>
</clipPath>
</defs>
</svg>
