<svg width="20" height="21" viewBox="0 0 20 21" fill="none" xmlns="http://www.w3.org/2000/svg">
<path d="M5.33989 9.72798L5.21153 9.85634L5.29385 10.0181C6.51784 12.4236 8.48949 14.3952 10.895 15.6192L11.0567 15.7016L11.1851 15.5732L13.0184 13.7399C13.1826 13.5757 13.4088 13.5285 13.6151 13.5928C14.5731 13.909 15.5989 14.0798 16.6667 14.0798C16.8214 14.0798 16.9697 14.1412 17.0791 14.2506C17.1885 14.36 17.25 14.5084 17.25 14.6631V17.5798C17.25 17.7345 17.1885 17.8828 17.0791 17.9922C16.9698 18.1016 16.8214 18.1631 16.6667 18.1631C12.9757 18.1631 9.43598 16.6969 6.8261 14.087C4.21622 11.4771 2.75 7.93735 2.75 4.24642C2.75 4.09171 2.81146 3.94334 2.92085 3.83394C3.03025 3.72454 3.17862 3.66309 3.33333 3.66309H6.25C6.40471 3.66309 6.55308 3.72454 6.66248 3.83394L6.83838 3.65804L6.66248 3.83394C6.77187 3.94334 6.83333 4.09171 6.83333 4.24642C6.83333 5.31421 7.00409 6.34003 7.32033 7.29797C7.38457 7.5043 7.33739 7.73047 7.17322 7.89464L5.33989 9.72798Z" stroke="#FCFCFC" stroke-width="0.5"/>
</svg>
