<svg width="20" height="21" viewBox="0 0 20 21" fill="none" xmlns="http://www.w3.org/2000/svg">
<path d="M10.8576 2.83061L10.8565 2.83062L9.14316 2.82978L9.14268 2.82978C8.53719 2.82832 7.9317 2.83524 7.32639 2.85053C7.32638 2.85053 7.32637 2.85053 7.32635 2.85053C7.32633 2.85053 7.3263 2.85053 7.32627 2.85054L7.16677 2.85465L6.57668 2.87951C6.57648 2.87952 6.57628 2.87953 6.57608 2.87953C5.71233 2.92014 5.13526 3.05554 4.63188 3.25042L4.62984 3.25121L4.62984 3.2512C4.10803 3.448 3.63548 3.75636 3.2452 4.15473L3.24139 4.15862L3.24135 4.15858C2.84245 4.54841 2.53384 5.02094 2.33724 5.5429L2.33643 5.54504L2.33642 5.54504C2.14151 6.04849 2.0061 6.62566 1.96552 7.48962C1.95552 7.7114 1.94724 7.89515 1.94063 8.08037L1.94062 8.08046L1.93484 8.24061C1.92038 8.84546 1.9143 9.45048 1.91662 10.0555L1.91662 10.0564L1.91662 11.7698V11.7704C1.91515 12.3762 1.92207 12.9819 1.93737 13.5875C1.93737 13.5875 1.93737 13.5875 1.93737 13.5876C1.93737 13.5876 1.93737 13.5876 1.93737 13.5876L1.9415 13.7477C1.94884 13.9443 1.95712 14.1408 1.96634 14.3372L10.8576 2.83061ZM10.8576 2.83061C11.4629 2.82829 12.0682 2.83437 12.6733 2.84884L12.8334 2.85462L12.8335 2.85462C13.0133 2.86104 13.1908 2.86902 13.4047 2.87864L13.4241 2.87951C13.4241 2.87951 13.4242 2.87951 13.4243 2.87952C14.2875 2.9201 14.8654 3.05553 15.3679 3.25037L15.3685 3.2506C15.8873 3.45028 16.3207 3.71821 16.7582 4.15573L16.7582 4.15573L16.7597 4.15726C17.1575 4.54815 17.4653 5.02098 17.6618 5.54288L17.6618 5.54288L17.6627 5.54516C17.8575 6.04758 17.9929 6.62629 18.0335 7.48938C18.0435 7.71101 18.0518 7.89465 18.0584 8.07972C18.0584 8.07994 18.0584 8.08015 18.0584 8.08037L18.0634 8.2392C18.0634 8.23945 18.0634 8.2397 18.0634 8.23995C18.0781 8.84506 18.0845 9.45034 18.0825 10.0556L18.0825 10.0568L18.0833 10.6781V10.6784V11.7698L18.0833 11.7706C18.0853 12.3762 18.079 12.9818 18.0642 13.5871C18.0642 13.5874 18.0642 13.5876 18.0642 13.5879L18.0593 13.7467C18.0593 13.7469 18.0593 13.7471 18.0593 13.7473C18.0528 13.9268 18.0449 14.1041 18.0353 14.3176L18.0344 14.3372C17.9938 15.2001 17.8569 15.7783 17.6626 16.2814L17.6617 16.2837C17.4659 16.806 17.1581 17.279 16.7599 17.6696L16.7599 17.6696L16.7567 17.6728C16.3655 18.0705 15.8923 18.3784 15.3702 18.575L15.3702 18.575L15.3679 18.5759C14.8655 18.7707 14.2876 18.9061 13.4246 18.9467L10.8576 2.83061ZM10.235 19.2464H9.14412L12.6808 19.2264M10.235 19.2464L10.8566 19.2456C11.4647 19.2477 12.0728 19.2413 12.6808 19.2264M10.235 19.2464L10.2346 18.9964M10.235 19.2464V18.9964H10.2346M12.6808 19.2264L12.6747 18.9765C12.6744 18.9765 12.6742 18.9765 12.6739 18.9765L12.6731 18.9766L12.6808 19.2264ZM10.2346 18.9964H9.14412L9.14327 18.9964C8.53771 18.9985 7.93214 18.9921 7.32675 18.9774L7.32768 18.9774L7.31995 19.2272L7.32605 18.9774M10.2346 18.9964L7.32605 18.9774M7.32605 18.9774L7.16734 18.9724M7.32605 18.9774L7.16734 18.9724M7.16734 18.9724C7.16717 18.9724 7.167 18.9724 7.16683 18.9724C6.97015 18.9653 6.77352 18.957 6.57694 18.9476L6.57669 18.9476C5.71386 18.907 5.1356 18.77 4.63156 18.5757L4.62953 18.5749C4.10755 18.3788 3.63474 18.071 3.24423 17.673L3.24427 17.673L3.24094 17.6697C2.84275 17.2788 2.53464 16.8057 2.3381 16.2834L2.33811 16.2834L2.33721 16.2811C2.14235 15.7785 2.00691 15.2005 1.96634 14.3372L7.16734 18.9724ZM3.06579 17.8481C3.48182 18.2721 3.98552 18.6001 4.54162 18.8089C5.07329 19.0139 5.67829 19.1556 6.56495 19.1973L3.06579 17.8481ZM3.06579 17.8481C2.64166 17.4317 2.31347 16.9277 2.10412 16.3714L3.06579 17.8481ZM12.8335 18.9716L12.8425 19.2214L12.8347 18.9716L12.8342 18.9716C12.834 18.9716 12.8337 18.9716 12.8335 18.9716ZM8.4098 9.32212C8.80427 8.92765 9.33013 8.69478 9.88453 8.66612L10.0046 8.66391C10.3034 8.6584 10.6004 8.7125 10.8782 8.82306C11.1559 8.93362 11.4088 9.09841 11.6221 9.30781C11.8355 9.51722 12.0049 9.76703 12.1206 10.0427C12.2363 10.3183 12.296 10.6142 12.296 10.9131C12.2961 11.2121 12.2365 11.508 12.1209 11.7837C12.0053 12.0594 11.8359 12.3092 11.6227 12.5187C11.4094 12.7282 11.1565 12.8931 10.8789 13.0037C10.6012 13.1144 10.3042 13.1686 10.0053 13.1632L10.0053 13.1631H10.0008C9.40405 13.1631 8.83175 12.9261 8.4098 12.5041C7.98784 12.0821 7.75079 11.5099 7.75079 10.9131C7.75079 10.3164 7.98784 9.74408 8.4098 9.32212ZM14.365 7.82875L14.3649 7.82895H14.375C14.7175 7.82895 15.0461 7.69286 15.2883 7.45063C15.5305 7.20839 15.6666 6.87985 15.6666 6.53728C15.6666 6.19471 15.5305 5.86617 15.2883 5.62394C15.0461 5.3817 14.7175 5.24562 14.375 5.24562H14.125V5.2798C13.8826 5.33597 13.6599 5.46138 13.4852 5.64322C13.254 5.8838 13.1249 6.20449 13.1249 6.53811C13.1249 6.87174 13.254 7.19243 13.4852 7.43301C13.7163 7.67359 14.0316 7.81541 14.365 7.82875ZM10.0017 6.49728C9.41711 6.48925 8.83673 6.59736 8.29422 6.81537C7.75116 7.03359 7.25689 7.35757 6.84013 7.76847C6.42338 8.17938 6.09244 8.66901 5.86656 9.20893C5.64068 9.74885 5.52436 10.3283 5.52436 10.9135C5.52436 11.4988 5.64068 12.0782 5.86656 12.6181C6.09244 13.158 6.42338 13.6477 6.84013 14.0586C7.25689 14.4695 7.75116 14.7935 8.29422 15.0117C8.83673 15.2297 9.41713 15.3378 10.0017 15.3298C11.1725 15.3293 12.2951 14.864 13.123 14.0362C13.9513 13.2079 14.4166 12.0845 14.4166 10.9131C14.4166 9.74174 13.9513 8.61835 13.123 7.79006C12.295 6.9621 11.1723 6.49775 10.0017 6.49728Z" stroke="#B70000" stroke-width="0.5"/>
</svg>
