<svg width="20" height="21" viewBox="0 0 20 21" fill="none" xmlns="http://www.w3.org/2000/svg">
<path d="M8.94192 13.1926L4.04495 18.7881H1.95096L8.02986 11.8402L8.16458 11.6862L8.0403 11.5237L1.55096 3.03809H6.60901L10.4615 8.1314L10.6468 8.37638L10.849 8.14519L15.3168 3.03809H17.4091L11.7494 9.5068L11.6154 9.65995L11.7382 9.82224L18.52 18.7881H13.5986L9.32862 13.2054L9.14307 12.9628L8.94192 13.1926ZM14.0373 17.54L14.1124 17.6381H14.2359H15.7634H16.2659L15.9628 17.2373L6.10277 4.20061L6.02775 4.10142H5.90338H4.26421H3.75824L4.06564 4.50331L14.0373 17.54Z" stroke="#FCFCFC" stroke-width="0.5"/>
</svg>
